<?xml version="1.0" encoding="UTF-8" standalone="no"?>
<svg
   xmlns:dc="http://purl.org/dc/elements/1.1/"
   xmlns:cc="http://creativecommons.org/ns#"
   xmlns:rdf="http://www.w3.org/1999/02/22-rdf-syntax-ns#"
   xmlns:svg="http://www.w3.org/2000/svg"
   xmlns="http://www.w3.org/2000/svg"
   xmlns:sodipodi="http://sodipodi.sourceforge.net/DTD/sodipodi-0.dtd"
   xmlns:inkscape="http://www.inkscape.org/namespaces/inkscape"
   height="400"
   viewBox="0 0 616 400"
   width="616"
   id="svg2"
   version="1.1"
   inkscape:version="0.91 r13725"
   sodipodi:docname="grey-prism.e20b09e3e5.svg">
  <metadata
     id="metadata266">
    <rdf:RDF>
      <cc:Work
         rdf:about="">
        <dc:format>image/svg+xml</dc:format>
        <dc:type
           rdf:resource="http://purl.org/dc/dcmitype/StillImage" />
      </cc:Work>
    </rdf:RDF>
  </metadata>
  <defs
     id="defs264" />
  <sodipodi:namedview
     pagecolor="#ffffff"
     bordercolor="#666666"
     borderopacity="1"
     objecttolerance="10"
     gridtolerance="10"
     guidetolerance="10"
     inkscape:pageopacity="0"
     inkscape:pageshadow="2"
     inkscape:window-width="1920"
     inkscape:window-height="1046"
     id="namedview262"
     showgrid="false"
     inkscape:zoom="1.9428516"
     inkscape:cx="312.11403"
     inkscape:cy="200"
     inkscape:window-x="-11"
     inkscape:window-y="-11"
     inkscape:window-maximized="1"
     inkscape:current-layer="svg2" />
  <path
     d="m0 0h615.9v399.8h-615.9z"
     fill="#fff"
     id="path4" />
  <path
     d="m385 133.3h-.1z"
     fill="none"
     id="path6" />
  <path
     d="m500.4 199.9h.1l38.4-66.5-.1-.1h-76.8l-.1.1z"
     fill="#f9f9f9"
     id="path8" />
  <path
     d="m346.4 199.9h.1l38.4-66.5-.1-.1h-76.9l-.1.1z"
     fill="#f5f5f5"
     id="path10" />
  <path
     d="m462 133.3h-.1z"
     fill="none"
     id="path12" />
  <path
     d="m423.4 199.9h.1l38.4-66.5-.1-.1h-76.8l-.1.1z"
     fill="#f7f7f7"
     id="path14" />
  <path
     d="m231.1 133.3h-.1zm77 0h-.1z"
     fill="none"
     id="path16" />
  <path
     d="m192.5 199.9h.1l38.4-66.5-.1-.1h-76.9l-.1.1z"
     fill="#fcfcfc"
     id="path18" />
  <path
     d="m269.4 199.9h.1l38.4-66.5-.1-.1h-76.9l-.1.1z"
     fill="#f9f9f9"
     id="path20" />
  <path
     d="m154.1 133.3h-.1z"
     fill="none"
     id="path22" />
  <path
     d="m231.1 266.5h76.9l-38.5-66.5z"
     fill="#efefef"
     id="path24" />
  <path
     d="m269.4 199.9h-76.9l-.1.1 38.4 66.5h.1z"
     fill="#f1f1f1"
     id="path26" />
  <path
     d="m269.6 199.9h-.1zm153.9 0h-.1z"
     fill="none"
     id="path28" />
  <path
     d="m346.4 199.9h-76.9l-.1.1 38.4 66.5h.1z"
     fill="#f0f0f0"
     id="path30" />
  <path
     d="m577.5 66.6h-.1z"
     fill="none"
     id="path32" />
  <path
     d="m385 266.5h76.9l-38.4-66.5z"
     fill="#f2f2f2"
     id="path34" />
  <path
     d="m423.5 199.9 38.4 66.6h.1l38.4-66.5-.1-.1z"
     fill="#f3f3f3"
     id="path36" />
  <path
     d="m423.4 199.9h-76.9l-.1.1 38.4 66.5h.1z"
     fill="#eee"
     id="path38" />
  <path
     d="m346.6 199.9h-.1z"
     fill="none"
     id="path40" />
  <path
     d="m500.5 199.9 38.4 66.6h.1l38.4-66.5-.1-.1zm-38.5 66.6 38.4 66.6h.1l38.4-66.5-.1-.1z"
     fill="#f8f8f8"
     id="path42" />
  <path
     d="m346.6 333.2h76.9l-38.5-66.6z"
     fill="#f7f7f7"
     id="path44" />
  <path
     d="m461.9 266.5h-76.9l-.1.1 38.4 66.5h.1z"
     fill="#f8f8f8"
     id="path46" />
  <path
     d="m423.5 333.2h76.9l-38.4-66.6z"
     fill="#f4f4f4"
     id="path48" />
  <path
     d="m539 133.3 38.4 66.6h.1l38.4-66.5-.1-.1z"
     fill="#f7f7f7"
     id="path50" />
  <path
     d="m154 133.4-76.9-.1-.1.1 38.4 66.5h.1z"
     fill="#f9f9f9"
     id="path52" />
  <path
     d="m154 266.5h-76.9l-.1.1 38.4 66.5h.1z"
     fill="#f8f8f8"
     id="path54" />
  <path
     d="m115.6 333.2h76.9l-38.5-66.6zm-.1-133.2-38.4 66.5h76.9z"
     fill="#f5f5f5"
     id="path56" />
  <path
     d="m154.1 266.5 38.4-66.5-.1-.1h-76.9l-.1.1 38.4 66.5z"
     fill="#f4f4f4"
     id="path58" />
  <path
     d="m115.5 199.9h.1z"
     fill="none"
     id="path60" />
  <path
     d="m231 266.5h-76.9l-.1.1 38.4 66.5h.1z"
     fill="#f7f7f7"
     id="path62" />
  <path
     d="m269.6 333.2h76.9l-38.5-66.6z"
     fill="#f9f9f9"
     id="path64" />
  <path
     d="m307.9 266.5h-76.9l-.1.1 38.4 66.5h.1zm-115.3 66.7h76.9l-38.5-66.6z"
     fill="#f8f8f8"
     id="path66" />
  <path
     d="m384.9 266.5h-76.9l-.1.1 38.4 66.5h.1z"
     fill="#fafafa"
     id="path68" />
  <path
     d="m308.1 266.5h76.9l-38.5-66.5z"
     fill="#f1f1f1"
     id="path70" />
  <path
     d="m615.9 266.5-38.5-66.5-38.4 66.5z"
     fill="#fafafa"
     id="path72" />
  <path
     d="m462 133.4-38.4 66.5h76.9zm0-133.3-38.4 66.5h76.9z"
     fill="#f7f7f7"
     id="path74" />
  <path
     d="m539 .1-38.4 66.5h76.9l-38.5-66.5zm-500.4 333.1h76.9l-38.5-66.6z"
     fill="#f5f5f5"
     id="path76" />
  <path
     d="m.1 133.3h76.9l-38.4-66.6-38.5 66.6z"
     fill="#f3f3f3"
     id="path78" />
  <path
     d="m77 266.5h.1zm0-133.2h.1z"
     fill="none"
     id="path80" />
  <path
     d="m38.6 199.9h76.9l-38.5-66.5z"
     fill="#f7f7f7"
     id="path82" />
  <path
     d="m0 266.5h.1z"
     fill="none"
     id="path84" />
  <path
     d="m115.5 66.7-38.4 66.5h76.9z"
     fill="#f4f4f4"
     id="path86" />
  <path
     d="m77 .1-38.4 66.5h76.9l-38.5-66.5z"
     fill="#f1f1f1"
     id="path88" />
  <path
     d="m231 .1-38.4 66.5h76.9l-38.5-66.5z"
     fill="#f7f7f7"
     id="path90" />
  <path
     d="m308 .1-38.4 66.5h76.9l-38.5-66.5z"
     fill="#f5f5f5"
     id="path92" />
  <path
     d="m385 .1-38.4 66.5h76.9l-38.5-66.5z"
     fill="#f7f7f7"
     id="path94" />
  <path
     d="m154 .1-38.4 66.5h76.9l-38.5-66.5z"
     fill="#f4f4f4"
     id="path96" />
  <path
     d="m577.4 333.2-38.4-66.6-38.4 66.5h76.8z"
     fill="#f0f0f0"
     id="path98" />
  <path
     d="m154.1 266.5h76.9l-38.5-66.5z"
     fill="#f5f5f5"
     id="path100" />
  <path
     d="m192.5 66.7-38.4 66.5h76.9z"
     fill="#f7f7f7"
     id="path102" />
  <path
     d="m385 133.4-38.4 66.5h76.9z"
     fill="#f8f8f8"
     id="path104" />
  <path
     d="m192.5 199.9h.1z"
     fill="none"
     id="path106" />
  <path
     d="m308 133.4-38.4 66.5h76.9z"
     fill="#f7f7f7"
     id="path108" />
  <path
     d="m231 133.4-38.4 66.5h76.9z"
     fill="#f9f9f9"
     id="path110" />
  <path
     d="m115.6 199.9h76.9l-38.5-66.5z"
     fill="#fbfbfb"
     id="path112" />
  <path
     d="m346.5 66.7-38.4 66.5h76.9z"
     fill="#f8f8f8"
     id="path114" />
  <path
     d="m269.5 66.7-38.4 66.5h76.9z"
     fill="#f7f7f7"
     id="path116" />
  <path
     d="m500.5 66.7-38.5 66.6h76.9z"
     fill="#f3f3f3"
     id="path118" />
  <path
     d="m423.5 66.7-38.5 66.6h76.9z"
     fill="#f8f8f8"
     id="path120" />
  <path
     d="m577.4 66.7-38.4 66.6h76.9z"
     fill="#f4f4f4"
     id="path122" />
  <path
     d="m577.4 199.9-38.4-66.5-38.4 66.5z"
     fill="#fbfbfb"
     id="path124" />
  <path
     d="m538.9 266.5-38.4-66.5-38.5 66.5z"
     fill="#fafafa"
     id="path126" />
  <path
     d="m539 133.3h-.1z"
     fill="none"
     id="path128" />
  <path
     d="m115.5 66.6h.1l38.4-66.5v-.1h-76.9l-.1.1z"
     fill="#f2f2f2"
     id="path130" />
  <path
     d="m538.9 133.3h.1l38.4-66.5-.1-.1h-76.9l-.1.1z"
     fill="#f3f3f3"
     id="path132" />
  <path
     d="m77.1 0h-.1z"
     fill="none"
     id="path134" />
  <path
     d="m577.4 66.6h.1l38.5-66.6h-77v.1z"
     fill="#f4f4f4"
     id="path136" />
  <path
     d="m154.1 0h-.1z"
     fill="none"
     id="path138" />
  <path
     d="m192.5 66.6h.1l38.4-66.5v-.1h-76.9l-.1.1z"
     fill="#fbfbfb"
     id="path140" />
  <path
     d="m462 0h-.1zm77 0h-.1z"
     fill="none"
     id="path142" />
  <path
     d="m500.4 66.6h.1l38.5-66.5-.1-.1h-76.9v.1z"
     fill="#f8f8f8"
     id="path144" />
  <path
     d="m385 0h-.1z"
     fill="none"
     id="path146" />
  <path
     d="m423.4 66.6h.1l38.5-66.5-.1-.1h-76.9v.1z"
     fill="#f3f3f3"
     id="path148" />
  <path
     d="m346.4 66.6h.1l38.5-66.5-.1-.1h-76.9v.1z"
     fill="#f4f4f4"
     id="path150" />
  <path
     d="m231.1 0h-.1z"
     fill="none"
     id="path152" />
  <path
     d="m269.4 66.6h.1l38.5-66.5-.1-.1h-76.9v.1z"
     fill="#f4f4f4"
     id="path154" />
  <path
     d="m308.1 0h-.1z"
     fill="none"
     id="path156" />
  <path
     d="m38.6 66.6 38.4-66.5v-.1h-77l38.5 66.6z"
     fill="#f2f2f2"
     id="path158" />
  <path
     d="m461.9 400h.1z"
     fill="none"
     id="path160" />
  <path
     d="m500.5 333.3-38.5 66.6.1.1h76.9l.1-.1z"
     fill="#f8f8f8"
     id="path162" />
  <path
     d="m346.5 333.3-38.5 66.6.1.1h76.9l.1-.1z"
     fill="#fbfbfb"
     id="path164" />
  <path
     d="m384.9 400h.1z"
     fill="none"
     id="path166" />
  <path
     d="m423.5 333.3-38.5 66.6.1.1h76.9l.1-.1z"
     fill="#f9f9f9"
     id="path168" />
  <path
     d="m538.9 400h.1z"
     fill="none"
     id="path170" />
  <path
     d="m539 399.9 77 .1-38.6-66.7z"
     fill="#efefef"
     id="path172" />
  <path
     d="m38.6 333.3-38.6 66.7h77l.1-.1z"
     fill="#fafafa"
     id="path174" />
  <path
     d="m77 400h.1zm230.9 0h.1z"
     fill="none"
     id="path176" />
  <path
     d="m115.5 333.3-38.5 66.6.1.1h76.9l.1-.1z"
     fill="#fefefe"
     id="path178" />
  <path
     d="m231 400h.1z"
     fill="none"
     id="path180" />
  <path
     d="m269.5 333.3-38.5 66.6.1.1h76.9l.1-.1z"
     fill="#fcfcfc"
     id="path182" />
  <path
     d="m154 400h.1z"
     fill="none"
     id="path184" />
  <path
     d="m192.5 333.3-38.5 66.6.1.1h76.9l.1-.1z"
     fill="#fafafa"
     id="path186" />
  <path
     d="m115.6 66.6h-.1z"
     fill="none"
     id="path188" />
  <path
     d="m77 133.4-76.9-.1-.1.1 38.4 66.5h.1z"
     fill="#f4f4f4"
     id="path190" />
  <path
     d="m0 133.3h.1z"
     fill="none"
     id="path192" />
  <path
     d="m77 133.3h.1l38.4-66.5-.1-.1h-76.8l-.1.1z"
     fill="#f5f5f5"
     id="path194" />
  <path
     d="m38.5 333.2h.1z"
     fill="none"
     id="path196" />
  <path
     d="m38.5 333.2-38.4-66.6-.1.1v66.4h38.5z"
     fill="#f6f6f6"
     id="path198" />
  <path
     d="m38.5 199.9-38.4-66.5-.1.1v66.4z"
     fill="#f4f4f4"
     id="path200" />
  <path
     d="m0 266.5h.1l38.5-66.5-.1-.1h-38.5z"
     fill="#f7f7f7"
     id="path202" />
  <path
     d="m0 400 38.6-66.7-.1-.1h-38.5z"
     fill="#f5f5f5"
     id="path204" />
  <path
     d="m38.5 66.6-38.5-66.6v66.6z"
     fill="#f4f4f4"
     id="path206" />
  <path
     d="m0 133.3h.1l38.4-66.5-.1-.1h-38.4z"
     fill="#f5f5f5"
     id="path208" />
  <path
     d="m38.5 199.9h.1z"
     fill="none"
     id="path210" />
  <path
     d="m38.6 200-38.5 66.5h76.9zm38.4 66.6-76.9-.1-.1.1 38.4 66.5h.1zm.1-.1 38.4-66.5-.1-.1h-76.8l-.1.1 38.5 66.5z"
     fill="#f5f5f5"
     id="path212" />
  <path
     d="m38.6 66.6h-.1zm308 0h-.1z"
     fill="none"
     id="path214" />
  <path
     d="m384.9 133.3h.1l38.4-66.5-.1-.1h-76.9l-.1.1z"
     fill="#f6f6f6"
     id="path216" />
  <path
     d="m423.5 66.6h-.1z"
     fill="none"
     id="path218" />
  <path
     d="m461.9 133.3h.1l38.4-66.5-.1-.1h-76.9l-.1.1z"
     fill="#fafafa"
     id="path220" />
  <path
     d="m154 133.3h.1l38.4-66.5-.1-.1h-76.9l-.1.1z"
     fill="#f6f6f6"
     id="path222" />
  <path
     d="m500.5 66.6h-.1zm-307.9 0h-.1z"
     fill="none"
     id="path224" />
  <path
     d="m231 133.3h.1l38.4-66.5-.1-.1h-76.9l-.1.1z"
     fill="#f6f6f6"
     id="path226" />
  <path
     d="m269.6 66.6h-.1z"
     fill="none"
     id="path228" />
  <path
     d="m307.9 133.3h.1l38.4-66.5-.1-.1h-76.9l-.1.1z"
     fill="#f8f8f8"
     id="path230" />
  <path
     d="m539 266.5 38.4 66.6h.1l38.4-66.5-.1-.1z"
     fill="#ededed"
     id="path232" />
  <path
     d="m500.4 333.2h.1z"
     fill="none"
     id="path234" />
  <path
     d="m500.5 333.2 38.4 66.7 38.5-66.6-.1-.1z"
     fill="#f9f9f9"
     id="path236" />
  <path
     d="m423.5 333.2 38.4 66.7 38.5-66.6-.1-.1zm-384.9 0 38.4 66.7 38.5-66.6-.1-.1z"
     fill="#fbfbfb"
     id="path238" />
  <path
     d="m577.5 66.6 38.4 66.6v-66.6z"
     fill="#f5f5f5"
     id="path240" />
  <path
     d="m615.9 133.5-38.4 66.4h38.4z"
     fill="#f4f4f4"
     id="path242" />
  <path
     d="m615.9 266.7-38.4 66.4h38.4z"
     fill="#f6f6f6"
     id="path244" />
  <path
     d="m577.5 333.2 38.4 66.6v-66.6z"
     fill="#f5f5f5"
     id="path246" />
  <path
     d="m615.9.2-38.4 66.4h38.4v-66.4z"
     fill="#f4f4f4"
     id="path248" />
  <path
     d="m577.5 199.9 38.4 66.6v-66.6z"
     fill="#f7f7f7"
     id="path250" />
  <path
     d="m192.6 333.2 38.4 66.7 38.5-66.6-.1-.1z"
     fill="#fcfcfc"
     id="path252" />
  <path
     d="m115.6 333.2 38.4 66.7 38.5-66.6-.1-.1z"
     fill="#fdfdfd"
     id="path254" />
  <path
     d="m192.5 333.2h.1zm-77 0h.1z"
     fill="none"
     id="path256" />
  <path
     d="m269.6 333.2 38.4 66.7 38.5-66.6-.1-.1zm77 0 38.4 66.7 38.5-66.6-.1-.1z"
     fill="#fcfcfc"
     id="path258" />
  <path
     d="m346.4 333.2h.1zm-77 0h.1zm154 0h.1z"
     fill="none"
     id="path260" />
  <path
     style="color:#000000;clip-rule:nonzero;display:inline;overflow:visible;visibility:visible;opacity:0.067;isolation:auto;mix-blend-mode:normal;color-interpolation:sRGB;color-interpolation-filters:linearRGB;solid-color:#000000;solid-opacity:1;fill:#6dff91;fill-opacity:1;fill-rule:nonzero;stroke:#5c5c5c;stroke-width:1.378901;stroke-linecap:round;stroke-linejoin:miter;stroke-miterlimit:4;stroke-dasharray:none;stroke-dashoffset:0;stroke-opacity:1;color-rendering:auto;image-rendering:auto;shape-rendering:auto;text-rendering:auto;enable-background:accumulate"
     d="m -0.31334146,199.79412 0,-200.22116626 308.30971146,0 308.30971,0 0,200.22116626 0,200.22116 -308.30971,0 -308.30971146,0 0,-200.22116 z"
     id="path4396"
     inkscape:connector-curvature="0" />
</svg>
